<svg width="40" height="40" viewBox="0 0 40 40" fill="none" xmlns="http://www.w3.org/2000/svg">
<rect width="40" height="40" rx="12" fill="white"/>
<path fill-rule="evenodd" clip-rule="evenodd" d="M15.4693 9.72234C13.8414 9.79579 12.4304 10.1938 11.2911 11.3283C10.1478 12.4688 9.75475 13.8853 9.68112 15.4963C9.63535 16.5017 9.3677 24.0979 10.1438 26.09C10.6672 27.434 11.6981 28.4673 13.0543 28.9924C13.6871 29.2385 14.4095 29.4051 15.4693 29.4538C24.3301 29.8548 27.6147 29.6365 28.9998 26.09C29.2456 25.4587 29.4147 24.737 29.4615 23.6799C29.8665 14.7963 29.3958 12.8708 27.8515 11.3283C26.6266 10.1064 25.1858 9.27469 15.4693 9.72234ZM15.5508 27.6672C14.5807 27.6235 14.0543 27.4618 13.7031 27.3259C12.8195 26.9824 12.1558 26.3215 11.8145 25.443C11.2234 23.9294 11.4195 16.7401 11.4722 15.5768C11.5239 14.4374 11.7548 13.3959 12.5588 12.592C13.5538 11.5994 14.8394 11.1129 23.5927 11.508C24.735 11.5596 25.7789 11.79 26.5848 12.592C27.5799 13.5845 28.0734 14.88 27.6714 23.5998C27.6276 24.5675 27.4655 25.0927 27.3291 25.443C26.4286 27.7508 24.3569 28.0711 15.5508 27.6672ZM23.6893 14.2892C23.6893 14.9463 24.2236 15.4806 24.8833 15.4806C25.543 15.4806 26.0784 14.9463 26.0784 14.2892C26.0784 13.6322 25.543 13.0983 24.8833 13.0983C24.2236 13.0983 23.6893 13.6322 23.6893 14.2892ZM14.4623 19.5876C14.4623 22.4025 16.7499 24.6847 19.5718 24.6847C22.3937 24.6847 24.6813 22.4025 24.6813 19.5876C24.6813 16.7726 22.3937 14.4919 19.5718 14.4919C16.7499 14.4919 14.4623 16.7726 14.4623 19.5876ZM16.2553 19.5876C16.2553 17.7612 17.7399 16.2795 19.5718 16.2795C21.4037 16.2795 22.8883 17.7612 22.8883 19.5876C22.8883 21.4149 21.4037 22.8971 19.5718 22.8971C17.7399 22.8971 16.2553 21.4149 16.2553 19.5876Z" fill="#FF0000"/>
</svg>
